<svg xmlns="http://www.w3.org/2000/svg" width="64" height="64" viewBox="0 0 64 64" role="img" aria-label="Baruch Lopez monogram">
  <defs>
    <linearGradient id="bg" x1="8" y1="4" x2="56" y2="60" gradientUnits="userSpaceOnUse">
      <stop offset="0" stop-color="#1a1a1c"/>
      <stop offset="0.58" stop-color="#050506"/>
      <stop offset="1" stop-color="#18120a"/>
    </linearGradient>
    <linearGradient id="mark" x1="14" y1="12" x2="50" y2="52" gradientUnits="userSpaceOnUse">
      <stop offset="0" stop-color="#f4f0e8"/>
      <stop offset="0.48" stop-color="#d8b46b"/>
      <stop offset="1" stop-color="#f4f0e8"/>
    </linearGradient>
  </defs>
  <rect x="4" y="4" width="56" height="56" rx="15" fill="url(#bg)"/>
  <rect x="5.5" y="5.5" width="53" height="53" rx="13.5" fill="none" stroke="#f4f0e8" stroke-opacity=".2"/>
  <path d="M18 47V17h10.8c6.1 0 9.9 3.1 9.9 7.9 0 3.1-1.7 5.4-4.7 6.5 3.7.9 5.9 3.5 5.9 7.1 0 5.1-4.1 8.5-10.6 8.5H18Zm6-17.8h4.4c2.7 0 4.3-1.3 4.3-3.5s-1.6-3.5-4.3-3.5H24v7Zm0 12.6h5c3 0 4.8-1.5 4.8-3.9S32 34 29 34h-5v7.8Z" fill="url(#mark)"/>
  <path d="M43.5 17h5.2v25.5H59V47H43.5V17Z" fill="#f4f0e8" fill-opacity=".92"/>
  <path d="M13 52h38" stroke="#d8b46b" stroke-width="1.5" stroke-linecap="round" stroke-opacity=".7"/>
</svg>
